<?xml version="1.0" encoding="UTF-8"?>
<svg width="86px" height="30px" viewBox="0 0 86 30" version="1.1" xmlns="http://www.w3.org/2000/svg" xmlns:xlink="http://www.w3.org/1999/xlink">
    <title>AmerExpr_Dark</title>
    <g id="Page-1" stroke="none" stroke-width="1" fill="none" fill-rule="evenodd">
        <path d="M31.2794118,15.9517647 L33.0519608,17.9970588 L34.9611765,15.9517647 L43.1403922,15.9517647 C43.9588235,15.9517647 45.5956863,16.0884314 46.2772549,16.7696078 L46.2772549,16.7696078 L46.2772549,15.9519608 L53.6398039,15.9519608 C54.3209804,15.9519608 55.8219608,16.0886275 56.6394118,16.7698039 L56.6394118,16.7698039 L56.6394118,15.9521569 L67.8190196,15.9521569 L67.8190196,16.77 C68.365098,16.225098 69.5913725,15.9521569 70.5462745,15.9521569 L70.5462745,15.9521569 L76.8176471,15.9521569 L76.8176471,16.77 C76.8176471,16.77 77.8494118,15.9521569 78.6996078,15.9521569 L78.6996078,15.9521569 L85.264902,15.9521569 L85.264902,16.3617647 L85.2711765,16.3617647 L85.2711765,22.4968627 C85.68,23.1784314 85.9523529,24.1331373 85.9523529,25.087451 C85.9523529,25.1764706 85.9488235,25.2637255 85.9437255,25.3519608 L85.9437255,25.3519608 L85.9523529,25.3596078 C85.947451,25.4068627 85.9405882,25.4539216 85.935098,25.5009804 C85.817451,27.0909804 85.0262745,28.4241176 83.7709804,29.1772549 C82.9529412,29.7229412 81.724902,29.8592157 80.4986275,29.8592157 L80.4986275,29.8592157 L74.6354902,29.8592157 L74.6354902,29.0405882 C73.9539216,29.5858824 72.7276471,29.8592157 71.4996078,29.8592157 L71.4996078,29.8592157 L52.9578431,29.8592157 L52.9576567,26.6358226 C52.9554194,26.3141176 52.9263348,26.3141176 52.5482353,26.3141176 L52.2762745,26.3141176 L52.2762745,29.8592157 L46.1407843,29.8592157 L46.1407843,26.1776471 C45.1864706,26.5872549 43.9588235,26.5872549 43.0052941,26.5872549 L43.0052941,26.5872549 L42.3231373,26.5872549 L42.3231373,29.7229412 L34.687451,29.7229412 L32.9786275,27.7509804 L31.0072549,29.7229412 L19.0092157,29.7229412 L19.0092157,15.9517647 L31.2794118,15.9517647 Z M83.7715686,17.9976471 L79.2719608,17.9976471 C79.0190196,17.9976471 78.7880392,18.0170588 78.5694118,18.0472549 C76.7409804,18.394902 75.9996078,19.5654902 75.9996078,20.8613725 C75.9996078,23.8603922 78.5907843,23.7239216 80.7715686,23.8603922 C81.1807843,23.8603922 81.4531373,23.9968627 81.5896078,24.1331373 C81.7254902,24.2698039 81.8623529,24.5411765 81.8623529,24.8145098 C81.8623529,25.087451 81.7254902,25.3596078 81.5896078,25.4962745 C81.3172549,25.7692157 81.0439216,25.7692157 80.6347059,25.7692157 L80.6347059,25.7692157 L76.2729412,25.7692157 L76.2729412,27.8141176 L80.634902,27.8141176 C81.9988235,27.8141176 82.9537255,27.405098 83.4984314,26.8590196 C84.0435294,26.3143137 84.3162745,25.6327451 84.3162745,24.8145098 C84.3162745,24.6378431 84.2984314,24.4782353 84.2741176,24.3252941 C83.9945098,22.8654902 82.7443137,22.3062745 82.3666667,22.1696078 C81.9543137,22.0247059 81.5037255,21.9511765 80.9078431,21.9511765 L80.9078431,21.9511765 L79.6811765,21.9511765 C79.4082353,21.9511765 79.1354902,21.9511765 78.8631373,21.8145098 C78.4535294,21.6792157 78.3170588,21.5427451 78.3170588,21.1335294 C78.3170588,20.8611765 78.4535294,20.5882353 78.5907843,20.4515686 C78.8631373,20.315098 79.1354902,20.315098 79.5447059,20.315098 L83.7715686,20.315098 L83.7715686,17.9976471 Z M74.9086275,17.9976471 L70.4096078,17.9976471 C67.9552941,17.9976471 67.1372549,19.4976471 67.1372549,20.8611765 C67.1372549,23.5677857 69.2468604,23.7207041 71.2618191,23.825078 L71.5873914,23.8419736 C71.6954069,23.8477274 71.8027977,23.8537351 71.9092157,23.8603922 C72.3180392,23.8603922 72.5911765,23.9968627 72.7280392,24.1331373 C72.8645098,24.2698039 73,24.5411765 73,24.8145098 C73,25.087451 72.8645098,25.3596078 72.7280392,25.4962745 C72.4547059,25.7692157 72.1813725,25.7692157 71.7731373,25.7692157 L71.7731373,25.7692157 L67.41,25.7692157 L67.41,27.8141176 L71.7731373,27.8141176 C74.0907843,27.8141176 75.3178431,26.8590196 75.3178431,24.8145098 C75.3178431,23.8603922 75.045098,23.1786275 74.6358824,22.7694118 C74.0905882,22.2239216 73.2727451,21.9511765 72.0454902,21.9511765 L72.0454902,21.9511765 L70.8182353,21.9511765 C70.5458824,21.9511765 70.2735294,21.9511765 70.0001961,21.8145098 C69.727451,21.6792157 69.4554902,21.5427451 69.4554902,21.1335294 C69.4554902,20.8611765 69.4554902,20.5882353 69.727451,20.4515686 C70.0003922,20.315098 70.2735294,20.315098 70.6823529,20.315098 L74.9086275,20.315098 L74.9086275,17.9976471 Z M53.0947059,18.1339216 L47.9141176,18.1339216 L47.9141176,27.8141176 L50.2317647,27.8141176 L50.2317647,24.2696078 L52.8695103,24.2697936 C53.5855273,24.2720223 54.0701357,24.3009955 54.3211765,24.6776471 C54.7307843,25.0872549 54.7307843,26.0409804 54.7307843,26.5872549 L54.7307843,27.8139216 L57.0482353,27.8139216 L57.0482353,25.9056863 C57.0482353,25.0872549 56.9117647,24.5409804 56.6394118,24.1329412 C56.5031373,23.8601961 56.0943137,23.5866667 55.4123529,23.315098 C56.0943137,23.0419608 57.0482353,22.2239216 57.0482353,20.7245098 C57.0482353,19.6337255 56.5031373,18.9519608 55.8219608,18.542549 C55.1390196,18.1339216 54.1847059,18.1339216 53.0947059,18.1339216 L53.0947059,18.1339216 Z M30.1890196,18.2703922 L21.3268627,18.2703922 L21.3268627,27.8141176 L30.052549,27.8141176 L33.0519608,24.6776471 L33.1794118,24.8243137 L33.1884314,24.8143137 L35.7966667,27.8141176 L40.2780392,27.8141176 L40.2780392,24.2696078 L43.0054902,24.2696078 C45.0498039,24.2696078 46.9586275,23.7237255 46.9586275,20.9970588 C46.9586275,20.6401961 46.9170588,20.3260784 46.8454902,20.0435294 C46.2503922,18.6166667 44.68,18.2705882 43.2776471,18.2705882 L43.2776471,18.2705882 L36.0517647,18.2705882 L33.1882353,21.4060784 L33.1192157,21.4776471 L32.6101961,20.9223529 L30.1890196,18.2703922 Z M66.0472549,18.1337255 L58.4121569,18.1337255 L58.4121569,27.8139216 L66.0472549,27.8139216 L66.0472549,25.7690196 L60.7292157,25.7690196 L60.7292157,23.86 L65.9103922,23.86 L65.9103922,21.9507843 L60.7292157,21.9507843 L60.7292157,20.1782353 L66.0472549,20.1782353 L66.0472549,18.1337255 Z M37.9607843,19.2241176 L37.9607843,26.9954902 L34.4156863,23.0419608 L37.9607843,19.2241176 Z M29.0986275,20.1782353 L31.552549,23.0419608 L28.9621569,25.9058824 L23.3721569,25.9058824 L23.3721569,23.8601961 L28.4170588,23.8601961 L28.4170588,21.9509804 L23.3721569,21.9509804 L23.3721569,20.1782353 L29.0986275,20.1782353 Z M43.1407843,20.1782353 C43.9592157,20.1782353 44.505098,20.5878431 44.6415686,21.4058824 C44.6415686,22.2237255 44.0958824,22.632549 43.2780392,22.632353 L43.2780392,22.632353 L40.2782353,22.632353 L40.2782353,20.1782353 Z M53.2694152,20.3154959 C53.6173589,20.3178832 53.9515966,20.3345938 54.1847059,20.4515686 C54.457451,20.5880392 54.7307843,20.8611765 54.5943137,21.4060784 C54.5943137,21.8143137 54.457451,22.2237255 54.1847059,22.3603922 C53.912549,22.4968627 53.5029412,22.4968627 53.0945098,22.4968627 L50.3672549,22.4968627 L50.3672549,20.315098 Z M11.9194118,0 L12.6011765,1.63607843 L12.6011765,0 L19.5545098,0 L21.0539216,3.40862745 L22.5543137,0 L44.5052941,0 C45.5960784,0 46.4141176,0.273137255 47.0956863,0.818235294 L47.0956863,0.818235294 L47.0956863,0 L53.2307843,0 L53.2307843,0.818235294 C54.3209804,0.272941176 55.5486275,0 57.0482353,0 L57.0482353,0 L65.7741176,0 L66.592549,1.63607843 L66.592549,0 L73,0 L73.817451,1.63607843 L73.8178431,0 L79.9533333,0 L79.9533333,13.3613725 L73.5454902,13.3613725 L72.3178431,11.3166667 L72.3178431,13.3613725 L64.4103922,13.3613725 L63.5923529,11.1803922 L61.6841176,11.1803922 L60.8660784,13.3613725 L56.7752941,13.3613725 C55.1390196,13.3613725 53.9127451,12.9529412 53.0947059,12.5433333 L53.0947059,12.5433333 L53.0947059,13.3613725 L43.2780392,13.3613725 L43.2780392,10.3619608 C43.2780392,9.9527451 43.2780392,9.9527451 43.0056863,9.9527451 L42.7323529,9.9527451 L42.7323529,13.4978431 L23.7805882,13.4978431 L23.7805882,11.8617647 L23.0992157,13.4976471 L19.1456863,13.4976471 L18.4635294,11.8617647 L18.4635294,13.4978431 L10.5564706,13.4978431 L9.73843137,11.3164706 L7.96607843,11.3164706 L7.14764706,13.3611765 L7.09823529,13.4978431 L0,13.4978431 L0.0576470588,13.3611765 L3.19313725,6.40784314 L5.92039216,0 L11.9194118,0 Z M59.2298039,1.90921569 L57.0478431,1.90921569 C55.5484314,1.90921569 54.3207843,2.18117647 53.6396078,2.99980392 C52.6852941,4.09019608 52.4129412,5.4545098 52.4129412,6.81784314 C52.4129412,8.59 52.8215686,9.68078431 53.6396078,10.4988235 C54.4572549,11.3168627 55.8215686,11.5892157 56.9115686,11.5892157 L56.9115686,11.5892157 L59.5019608,11.5892157 L60.32,9.40823529 L65.0923529,9.40823529 L65.9103922,11.4533333 L68.2284314,11.4533333 L68.2284314,11.4590196 L70.5317647,11.4590196 L70.5317647,10.2115686 L70.5460784,10.2256863 L70.5460784,4.22666667 L74.9088235,11.4531373 L77.9084314,11.4535294 L77.9084314,2.04627451 L75.5896078,2.04627451 L75.5896078,8.72666667 L71.6364706,2.04627451 L68.2282353,2.04627451 L68.2282353,11.1807843 L64.4101961,2.04607843 L61.0013725,2.04607843 L57.8658824,9.54470588 L56.9115686,9.54470588 C56.23,9.54470588 55.685098,9.40823529 55.275098,8.99862745 C54.7303922,8.45333333 54.5939216,7.77176471 54.5939216,6.68078431 C54.5939216,5.72647059 54.8668627,4.90862745 55.275098,4.49980392 C55.8215686,4.09 56.2298039,3.95411765 57.0478431,3.95411765 L57.0478431,3.95411765 L59.2298039,3.95411765 L59.2298039,1.90921569 Z M37.0064706,1.90921569 L29.3713725,1.90921569 L29.3713725,11.5890196 L37.0064706,11.5890196 L37.0064706,9.5445098 L31.6890196,9.5445098 L31.6890196,7.63509804 L36.87,7.63509804 L36.87,5.72647059 L31.6890196,5.72647059 L31.6890196,3.95411765 L37.0064706,3.95411765 L37.0064706,1.90921569 Z M10.6921569,1.90901961 L7.28392157,1.90901961 L3.25058824,11.4531373 L5.6472549,11.4531373 L6.60176471,9.40803922 L11.2378431,9.40803922 L12.1921569,11.4531373 L16.827451,11.4531373 L16.827451,3.95411765 L20.0994118,11.4531373 L22.1088235,11.4531373 L25.2805882,4.26313725 L25.2805882,4.26686275 L25.4170588,3.95411765 L25.4170588,11.4531373 L27.5986275,11.4531373 L27.5986275,1.90921569 L23.9166667,1.90921569 L21.19,8.45333333 L21.1462745,8.59470588 L19.9109804,5.78960784 L18.1907843,2.04568627 L18.1860784,2.04568627 L18.1217647,1.90901961 L14.5096078,1.90901961 L14.509,11.042 L10.6921569,1.90901961 Z M51.3221569,1.90901961 L49.0041176,1.90901961 L49.0041176,11.4531373 L51.3221569,11.4531373 L51.3221569,1.90901961 Z M43.963125,1.90940186 L38.5058824,1.90921569 L38.5058824,11.4533333 L40.8231373,11.4533333 L40.8231373,8.04470588 L43.4829245,8.0449614 C44.0045824,8.04679254 44.3307407,8.06156863 44.5123529,8.17921569 C44.6543137,8.23960784 44.7847059,8.3245098 44.9135294,8.45333333 C45.3231373,8.99862745 45.3231373,9.81686275 45.3231373,10.3621569 L45.3231373,10.3621569 L45.3231373,11.4533333 L47.3678431,11.4533333 L47.3678431,9.5445098 C47.3678431,9.46156863 47.3658824,9.38490196 47.3627451,9.30980392 C47.3627451,9.30568627 47.3631373,9.30235294 47.3631373,9.29803922 L47.3631373,9.29803922 L47.3617647,9.27647059 C47.3609804,9.26352941 47.3603922,9.25078431 47.3596078,9.23784314 C47.3490196,8.49117647 47.1378431,7.98196078 46.8766667,7.63960784 C46.8390196,7.5872549 46.794902,7.53254902 46.7433333,7.47803922 C46.7390196,7.47509804 46.7345098,7.47294118 46.7309804,7.46980392 C46.3231373,7.04529412 45.8682353,6.95372549 45.8682353,6.95372549 C46.5378431,6.68529412 47.4692157,5.88921569 47.5007843,4.43823529 C47.4854902,3.38470588 47.0819608,2.71941176 46.4139216,2.31823529 C45.7319608,1.90921569 44.9135294,1.90921569 43.6872549,1.90921569 Z M62.7745098,3.54509804 L64.2745098,7.3627451 L61.1382353,7.3627451 L62.7745098,3.54509804 Z M8.92019608,3.54509804 L10.4196078,7.3627451 L7.42,7.3627451 L8.92019608,3.54509804 Z M43.725022,3.95451381 C44.0731132,3.95689076 44.4070868,3.97352941 44.6413725,4.09 C44.8141176,4.17705882 44.9872549,4.32058824 45.055098,4.55411765 L45.055098,4.55411765 C45.0594118,4.56490196 45.0590196,4.5745098 45.0615686,4.5854902 C45.0709804,4.62490196 45.0790196,4.66568627 45.0821569,4.70980392 C45.1584314,5.19039216 45.0168627,5.54254902 44.8933333,5.73803922 C44.8627451,5.79333333 44.8266667,5.84156863 44.7868627,5.88411765 C44.7684314,5.90529412 44.7545098,5.91980392 44.7543137,5.92 L44.7543137,5.92 C44.7188235,5.95019608 44.6823529,5.97843137 44.6413725,5.99921569 C44.3682353,6.13588235 43.9590196,6.13588235 43.5501961,6.13588235 L40.8229412,6.13588235 L40.8229412,3.95411765 Z" id="AmerExpr_Dark" fill="#A1A1A1" fill-rule="nonzero"></path>
    </g>
</svg>