<?xml version="1.0" encoding="UTF-8"?>
<svg width="37px" height="30px" viewBox="0 0 37 30" version="1.1" xmlns="http://www.w3.org/2000/svg" xmlns:xlink="http://www.w3.org/1999/xlink">
    <title>DinersClub_Light</title>
    <g id="Page-1" stroke="none" stroke-width="1" fill="none" fill-rule="evenodd">
        <path d="M21.5233602,0 C25.5005611,0 29.4174912,1.52878455 32.2823616,4.19451379 C35.3246959,7.02514513 37,10.9051945 37,15.120462 C37,19.0426956 35.3349643,22.7794989 32.3109344,25.6426144 C29.3857932,28.4116612 25.4793547,30 21.5930064,30 L21.59256,30 L21.5188957,29.9995488 L14.892683,30 C6.68090279,30 0,23.3249617 0,15.1202364 C0,6.50043613 6.4270959,0 14.9500519,0 L21.5233602,0 Z M14.9933575,2.97207267 C8.44460399,2.97207267 3.11711473,8.35631786 3.11711473,14.974509 C3.11711473,21.5929257 8.44460399,26.9771709 14.9933575,26.9771709 C21.538986,26.9771709 26.8644662,21.5929257 26.8644662,14.974509 C26.8644662,8.35631786 21.538986,2.97207267 14.9933575,2.97207267 Z M12.0945569,7.33577466 L12.0945569,22.6069269 C9.0549013,21.4271212 6.90769945,18.4577556 6.90144915,14.974509 C6.90747623,11.4928415 9.05467807,8.52370139 12.0945569,7.33577466 Z M17.8883633,7.33577466 C20.9271261,8.51738503 23.0801318,11.493067 23.0866053,14.974509 C23.0801318,18.4577556 20.9271261,21.4268957 17.8883633,22.6069269 L17.8883633,7.33577466 Z" id="DinersClub_Light" fill="#6D6F71" fill-rule="nonzero"></path>
    </g>
</svg>