<?xml version="1.0" encoding="UTF-8"?>
<svg width="173px" height="30px" viewBox="0 0 173 30" version="1.1" xmlns="http://www.w3.org/2000/svg" xmlns:xlink="http://www.w3.org/1999/xlink">
    <title>Discover_Dark</title>
    <g id="Page-1" stroke="none" stroke-width="1" fill="none" fill-rule="evenodd">
        <path d="M42.8938462,1.095 C45.9534615,1.095 48.7334615,2.20615385 50.9592308,4.15384615 L50.9592308,4.15384615 L48.1773077,7.76923077 C46.7865385,6.10038462 45.3961538,5.54384615 43.7273077,5.54384615 C41.5023077,5.54384615 39.8334615,6.93423077 39.8334615,8.60307692 C39.8334615,9.99307692 40.6688462,10.8280769 44.0057692,11.9403846 C50.1246154,14.1657692 51.7919231,16.1126923 51.7911541,20.8396154 C51.7911541,26.1246154 47.8992308,29.74 42.3373077,29.74 C38.4434615,29.74 35.3842308,28.0715385 32.88,24.4561538 L32.88,24.4561538 L36.2176923,21.1184615 C37.3303846,23.3438462 39.5534615,24.7342308 42.0588462,24.7342308 C44.5634615,24.7342308 46.2311538,23.065 46.2311538,20.8396154 C46.2311538,19.7284615 45.6738462,18.615 44.5634615,18.0596154 C44.0061538,17.5034615 43.1715385,17.2242308 40.9465385,16.3911538 C35.9411538,14.4442308 34.2707692,12.7757692 34.2707692,8.88115385 C34.2707692,4.43269231 38.1646154,1.095 42.8938462,1.095 Z M91.8423077,0.538846154 C91.8607692,0.538846154 91.8780769,0.54 91.8957692,0.54 C95.6096154,0.517692308 99.3303846,1.90615385 102.133077,4.70884615 C104.929615,7.50576923 106.319231,11.2173077 106.303462,14.9234615 C106.303462,14.9496154 106.305385,14.9746154 106.305385,15.0011538 C106.305385,23.0657692 99.9092308,29.4623077 91.8423077,29.4623077 C83.8565385,29.4623077 77.3807692,22.9884615 77.3807692,15.0011538 C77.3807692,6.93423077 83.7776923,0.538846154 91.8423077,0.538846154 Z M111.032692,1.37153846 L118.264231,19.7288462 L124.562692,4.24346154 L125.774231,1.37153846 L131.613846,1.37153846 L119.654615,29.4619231 L116.595385,29.4619231 L105.193077,1.37153846 L111.032692,1.37153846 Z M67.9242308,0.260384615 C70.4265385,0.260384615 72.375,0.816923077 74.5980769,1.92884615 L74.5980769,1.92884615 L74.5980769,8.32538462 C72.3746154,6.10038462 70.4269231,5.26615385 67.9242308,5.26615385 C65.6057692,5.26615385 63.5896154,6.22615385 62.0246154,7.71192308 L62.0246154,7.71192308 L61.8104657,7.96791855 C60.2661553,9.85924313 59.3023077,12.0613545 59.3023077,14.7226923 C59.3023077,20.25 63.1511538,24.1269231 68.3861538,24.1738462 C70.535,24.1280769 72.53,23.2826923 74.6915385,21.1188462 L74.6915385,21.1188462 C74.6446154,21.1657692 74.6678846,21.2110577 74.69125,21.2557212 L74.6915385,21.1188462 L74.695,21.2643846 L74.7120513,21.3002137 C74.717265,21.315 74.7198932,21.3297543 74.7173397,21.3445139 L74.698,21.3753846 L74.8773077,27.5169231 C72.5310337,28.5600721 70.6718765,29.1130619 68.6156204,29.1781108 L68.2015385,29.1846154 L68.2015385,29.1846154 L68.04,29.1807692 C68.0019231,29.1811538 67.9630769,29.1846154 67.9238462,29.1846154 C59.8588462,29.1846154 53.46,23.0661538 53.46,15.0019231 C53.46,11.8023077 54.5888462,8.83807692 56.4565385,6.41730769 C57.0553846,5.57961538 57.7615385,4.84769231 58.4984615,4.18461538 L58.4984615,4.18461538 L58.8089829,3.91937942 C61.3223846,1.82914277 64.5302615,0.502969231 67.9242308,0.260384615 Z M149.135769,1.37153846 L149.135769,6.10038462 L139.401923,6.10038462 L139.401923,11.9403846 L148.858846,11.9403846 L148.858846,16.67 L139.401923,16.67 L139.401923,24.1773077 L149.135769,24.1773077 L149.135769,28.6288462 L133.839615,28.6288462 L133.839615,1.37153846 L149.135769,1.37153846 Z M8.12884615,1.37153846 C17.0269231,1.37153846 22.8684615,6.93384615 22.8680769,15.0015385 C22.8680769,19.1726923 20.9203846,23.0653846 17.8615385,25.5684615 C15.3584615,27.5153846 12.2996154,28.6288462 8.12846154,28.6288462 L8.12846154,28.6288462 L0.34,28.6288462 L0.34,1.37153846 Z M160.817692,1.37153846 C166.935385,1.37153846 170.551538,4.43269231 170.551538,9.43807692 C170.551538,13.6088462 168.325769,16.3911538 164.155385,17.2242308 L164.155385,17.2242308 L172.776154,28.6288462 L166.378462,28.6288462 L158.871154,17.7807692 L158.035769,17.7807692 L158.035769,28.6288462 L152.751538,28.6288462 L152.751538,1.37153846 Z M30.6573077,1.36923077 L30.6573077,28.6257692 L25.3730769,28.6257692 L25.3730769,1.36923077 L30.6573077,1.36923077 Z M7.015,6.1 L5.62461538,6.1 L5.62461538,24.1773077 L7.29346154,24.1773077 C10.6311538,24.1773077 12.8561538,23.3438462 14.525,21.9538462 C16.4723077,20.2834615 17.5846154,17.5034615 17.3065385,15.0003846 C17.3065385,12.4965385 16.1934615,9.99192308 14.2469231,8.32423077 C12.5776923,6.65615385 10.3526923,6.1 7.015,6.1 L7.015,6.1 Z M159.703846,5.54384615 L158.036154,5.54384615 L158.036154,13.8865385 L159.703846,13.8865385 C163.041923,13.8865385 164.989231,12.4969231 164.989231,9.71692308 C164.989231,6.93384615 163.041538,5.54384615 159.703846,5.54384615 L159.703846,5.54384615 Z" id="Discover_Dark" fill="#A1A1A1" fill-rule="nonzero"></path>
    </g>
</svg>