<?xml version="1.0" encoding="UTF-8"?>
<svg width="100px" height="30px" viewBox="0 0 100 30" version="1.1" xmlns="http://www.w3.org/2000/svg" xmlns:xlink="http://www.w3.org/1999/xlink">
    <title>Other_Dark</title>
    <g id="Page-1" stroke="none" stroke-width="1" fill="none" fill-rule="evenodd">
        <path d="M13.6510501,30 C22.0315024,30 27.3021002,24.2454728 27.3021002,15.0100604 C27.3021002,5.77464789 22.0315024,0 13.6510501,0 C5.25040388,0 0,5.77464789 0,15.0100604 C0,24.2454728 5.25040388,30 13.6510501,30 Z M13.6510501,26.0362173 C8.11793215,26.0362173 4.62439418,21.7706237 4.62439418,15.0100604 C4.62439418,8.22937626 8.11793215,3.9637827 13.6510501,3.9637827 C19.184168,3.9637827 22.6575121,8.22937626 22.6575121,15.0100604 C22.6575121,21.7706237 19.184168,26.0362173 13.6510501,26.0362173 Z M38.3279483,29.6579477 C39.2972536,29.6579477 40.266559,29.5774648 40.7512116,29.4567404 L40.7512116,26.0160966 C40.4684976,26.0764588 39.7617124,26.1167002 39.3174475,26.1167002 C37.5403877,26.1167002 36.7326333,25.2917505 36.7326333,23.4607646 L36.7326333,11.7907445 L40.7714055,11.7907445 L40.7714055,8.3501006 L36.7326333,8.3501006 L36.7326333,3.34004024 L32.3505654,3.34004024 L32.3505654,8.3501006 L29.2609047,8.3501006 L29.2609047,11.7907445 L32.3505654,11.7907445 L32.3505654,23.943662 C32.3505654,28.028169 34.0266559,29.6579477 38.3279483,29.6579477 Z M48.8691438,29.5171026 L48.8691438,17.2837022 C48.8691438,13.943662 50.8481422,11.7303823 54.0791599,11.7303823 C57.1486268,11.7303823 58.723748,13.6016097 58.723748,16.7203219 L58.723748,29.5171026 L63.1058158,29.5171026 L63.1058158,15.8752515 C63.1058158,11.0865191 60.319063,7.98792757 55.6542811,7.98792757 C52.4232633,7.98792757 50.1009693,9.41649899 48.9297254,11.8913481 L48.8287561,11.8913481 L48.8287561,0.482897384 L44.5072698,0.482897384 L44.5072698,29.5171026 L48.8691438,29.5171026 Z M76.3731826,29.9195171 C81.2399031,29.9195171 84.9151858,27.1629779 85.5210016,23.2997988 L81.3812601,23.2997988 C80.7956381,25.1509054 78.9579968,26.3983903 76.4741519,26.3983903 C72.9806139,26.3983903 70.7592892,23.9637827 70.7592892,20.2816901 L70.7592892,20.0201207 L85.7633279,20.0201207 L85.7633279,18.5311871 C85.7633279,12.1126761 82.0880452,7.96780684 76.1914378,7.96780684 C70.1938611,7.96780684 66.3570275,12.3943662 66.3570275,19.0342052 C66.3570275,25.7142857 70.1332795,29.9195171 76.3731826,29.9195171 Z M81.401454,16.9818913 L70.779483,16.9818913 C71.0016155,13.7826962 73.1421648,11.4688129 76.1914378,11.4688129 C79.2407108,11.4688129 81.3004847,13.7424547 81.401454,16.9818913 Z M93.4975767,29.5171026 L93.4975767,16.8410463 C93.4975767,13.8430584 95.2342488,11.971831 98.0411955,11.971831 C98.8893376,11.971831 99.6567044,12.0724346 100,12.2132797 L100,8.16901408 C99.6768982,8.10865191 99.131664,8.00804829 98.5056543,8.00804829 C96.0016155,8.00804829 94.1033926,9.47686117 93.3966074,11.9517103 L93.2956381,11.9517103 L93.2956381,8.3501006 L89.1357027,8.3501006 L89.1357027,29.5171026 L93.4975767,29.5171026 Z" id="Other_Dark" fill="#A1A1A1" fill-rule="nonzero"></path>
    </g>
</svg>