<?xml version="1.0" encoding="UTF-8"?>
<svg width="48px" height="30px" viewBox="0 0 48 30" version="1.1" xmlns="http://www.w3.org/2000/svg" xmlns:xlink="http://www.w3.org/1999/xlink">
    <title>UnionPay_Light</title>
    <g id="Page-1" stroke="none" stroke-width="1" fill="none" fill-rule="evenodd">
        <g id="UnionPay_Light" fill-rule="nonzero">
            <path d="M9.38280581,0.00012516812 L21.3412896,0.00012516812 C23.0105863,0.00012516812 24.0488321,1.36074627 23.6594171,3.03558107 L18.0918884,26.9391405 C17.6989756,28.6081457 16.0276386,29.9699327 14.3571759,29.9699327 L2.39985812,29.9699327 C0.73289325,29.9699327 -0.307684582,28.6081457 0.081730539,26.9391405 L5.65159099,3.03558107 C6.04100612,1.36074627 7.71146874,0.00012516812 9.38280581,0.00012516812" id="Path" fill="#BCC0C2"></path>
            <path d="M20.3462406,0.00012516812 L34.0981909,0.00012516812 C35.7671959,0.00012516812 35.0145988,1.36074627 34.6219774,3.03558107 L29.0553233,26.9391405 C28.6647422,28.6081457 28.7865801,29.9699327 27.1140771,29.9699327 L13.362127,29.9699327 C11.689624,29.9699327 10.6545843,28.6081457 11.0474972,26.9391405 L16.6138598,3.03558107 C17.0091045,1.36074627 18.6760694,0.00012516812 20.3462406,0.00012516812" id="Path" fill="#A4A7A9"></path>
            <path d="M33.5527181,0.00012516812 L45.5112017,0.00012516812 C47.1828304,0.00012516812 48.2210764,1.36074627 47.8284549,3.03558107 L42.2618008,26.9391405 C41.868888,28.6081457 40.1963848,29.9699327 38.5250479,29.9699327 L26.5721023,29.9699327 C24.8995993,29.9699327 23.8622278,28.6081457 24.2539748,26.9391405 L29.8215032,3.03558107 C30.2109186,1.36074627 31.8802151,0.00012516812 33.5527181,0.00012516812" id="Path" fill="#757779"></path>
            <path d="M12.5059384,7.66052689 C11.2761911,7.67306046 10.9130091,7.66052689 10.7970007,7.63312793 C10.7524044,7.8450327 9.92256544,11.6730184 9.92023359,11.6762246 C9.74155734,12.4506827 9.61155806,13.0027427 9.16996828,13.3592208 C8.91929687,13.5664619 8.62665257,13.666439 8.28737173,13.666439 C7.74201568,13.666439 7.42430422,13.3956556 7.37096368,12.8820707 L7.36076196,12.7057263 C7.36076196,12.7057263 7.52690462,11.6683547 7.52690462,11.6625251 C7.52690462,11.6625251 8.39784204,8.17411179 8.55378298,7.71299301 C8.56194437,7.68675996 8.56427619,7.67306046 8.56631653,7.66052689 C6.87107826,7.67539228 6.57056404,7.66052689 6.54986908,7.63312793 C6.53850141,7.67072863 6.49652854,7.88700559 6.49652854,7.88700559 L5.60722798,11.8187575 L5.53086064,12.1522088 L5.38308111,13.2429209 C5.38308111,13.5664619 5.44662339,13.8305413 5.57312501,14.0538138 C5.97827996,14.7618148 7.13399177,14.8679129 7.78777777,14.8679129 C8.63015031,14.8679129 9.42034819,14.6889452 9.95433656,14.3621979 C10.8812378,13.8145101 11.1237479,12.958438 11.3400248,12.1976795 L11.4402934,11.8073899 C11.4402934,11.8073899 12.3374639,8.18431356 12.489907,7.71299301 C12.4957367,7.68675996 12.4980684,7.67306046 12.5059384,7.66052689 Z M15.5585041,10.5832973 C15.3422271,10.5832973 14.9469824,10.6357633 14.5919617,10.809776 C14.4631283,10.8759415 14.3412904,10.9523089 14.2127483,11.0283848 L14.3287567,10.6095303 L14.2652145,10.5389925 C13.5123258,10.6914357 13.3438513,10.7118392 12.6483839,10.809776 L12.5900882,10.8485425 C12.5093487,11.5180685 12.437645,12.0214516 12.1382967,13.3374765 C12.0243287,13.8224965 11.9059884,14.3121803 11.7873567,14.7960343 L11.8194193,14.8575363 C12.532084,14.8199356 12.748361,14.8199356 13.3677525,14.8301373 L13.4178868,14.7756308 C13.496586,14.3725163 13.5067877,14.2780773 13.6810918,13.4616463 C13.7629972,13.074563 13.9338036,12.224029 14.0180408,11.9211831 C14.1728158,11.8494793 14.3255505,11.7789415 14.4712897,11.7789415 C14.8184405,11.7789415 14.7761761,12.0817876 14.7627681,12.2024597 C14.7479027,12.4050371 14.621401,13.0666931 14.4916932,13.6347845 L14.4051241,14.0014643 C14.3447881,14.2722477 14.2786224,14.5354526 14.2182864,14.8039043 L14.2445195,14.8575363 C14.9469824,14.8199356 15.1612191,14.8199356 15.7610815,14.8301373 L15.8316193,14.7756308 C15.9400492,14.1460375 15.9718204,13.9775631 16.1641961,13.0608635 L16.2609669,12.6396773 C16.4489706,11.8153763 16.5434095,11.3973964 16.4011681,11.0569496 C16.2507652,10.6754044 15.889915,10.5832973 15.5585041,10.5832973 Z M18.968568,11.4463356 C18.5951842,11.5180393 18.3570463,11.5658417 18.1203659,11.5967384 C17.8857258,11.6343392 17.6569152,11.6684422 17.296065,11.7185764 L17.2675001,11.7445179 L17.2412671,11.765213 C17.2036664,12.0339561 17.1774333,12.2662643 17.1275905,12.5393796 C17.0853262,12.8218221 17.0203265,13.1427398 16.9145198,13.6038586 C16.8326144,13.9568389 16.79035,14.0798428 16.7437134,14.2040126 C16.6982428,14.3281823 16.6481086,14.4488544 16.5560014,14.7960052 L16.5775708,14.8280678 L16.5956424,14.8575071 C16.9328829,14.8414758 17.1535321,14.8301081 17.3803023,14.8280678 C17.606781,14.8199064 17.841421,14.8280678 18.2046031,14.8301081 L18.2363743,14.8041666 L18.2704773,14.7756017 C18.3229433,14.4625539 18.3308133,14.3783167 18.3628759,14.225582 C18.394647,14.0617711 18.449445,13.835001 18.5838165,13.2293089 C18.6473588,12.944826 18.7181881,12.6612175 18.7840622,12.370905 C18.8525597,12.0817584 18.9242632,11.7969841 18.9924692,11.5125012 L18.9822675,11.4781068 L18.968568,11.4463356 Z M18.9765253,10.2826956 C18.6372445,10.08245 18.0417542,10.1459922 17.6409713,10.4226053 C17.2413546,10.6936801 17.1958839,11.0784316 17.5339988,11.2813005 C17.8674501,11.4760081 18.4652722,11.4180039 18.8625572,11.1390591 C19.2612997,10.8621547 19.3111425,10.4809009 18.9765253,10.2826956 Z M21.0283873,14.9202624 C21.714819,14.9202624 22.4184478,14.7310929 22.9480641,14.1697056 C23.3555509,13.7144164 23.5423884,13.0370206 23.6070967,12.7580758 C23.8178357,11.8335064 23.6537332,11.4018268 23.447658,11.1389134 C23.1346102,10.7381305 22.5813844,10.6095886 22.0074634,10.6095886 C21.6623529,10.6095886 20.8403839,10.6436916 20.1982571,11.2356842 C19.7371382,11.6627 19.5240675,12.2421591 19.3955256,12.7977168 C19.2658177,13.3637678 19.1165807,14.3827763 20.0536837,14.7619897 C20.3428303,14.8861595 20.7596445,14.9202624 21.0283873,14.9202624 Z M20.9747554,12.8399812 C21.1330282,12.1398502 21.3198658,11.5522297 21.7967244,11.5522297 C22.1703997,11.5522297 22.1975072,11.9894473 22.0313646,12.6919102 C22.0016338,12.8478511 21.8652219,13.4276017 21.6807161,13.6744838 C21.5518826,13.8566578 21.3994395,13.9671281 21.2309649,13.9671281 C21.1808306,13.9671281 20.8826482,13.9671281 20.8779846,13.5243725 C20.8756528,13.3057637 20.9202489,13.0824912 20.9747554,12.8399812 Z M25.32303,14.8302248 L25.3766619,14.7757183 C25.4527378,14.3726037 25.4652714,14.2778732 25.633746,13.4617338 C25.7179832,13.0746504 25.8922871,12.2241165 25.9741927,11.9212704 C26.1292592,11.8492753 26.2793706,11.7787375 26.4297733,11.7787375 C26.7745922,11.7787375 26.7326194,12.0815836 26.7189201,12.2022556 C26.7063862,12.4051246 26.5798849,13.066489 26.4478449,13.6345804 L26.3659397,14.0012603 C26.3032717,14.2723351 26.2350658,14.5352486 26.1747298,14.8039917 L26.2009629,14.8576238 C26.9057576,14.820023 27.1118327,14.820023 27.7151931,14.8302248 L27.7880627,14.7757183 C27.8938693,14.1458335 27.9224342,13.977359 28.1206395,13.0609509 L28.2150786,12.6394733 C28.4039565,11.8151723 28.4995612,11.3974838 28.3596517,11.0570371 C28.2048767,10.6754918 27.8416946,10.5833847 27.5149474,10.5833847 C27.2983789,10.5833847 26.9010939,10.6355593 26.5481136,10.8098634 C26.4219036,10.876029 26.2954018,10.9521049 26.171232,11.0284722 L26.2793706,10.6096178 L26.2213663,10.5387885 C25.4687692,10.6915232 25.2967969,10.7119267 24.6022039,10.8098634 L24.5488633,10.84863 C24.4646261,11.5181558 24.3961286,12.0212476 24.0967804,13.337564 C23.9828124,13.822584 23.8644722,14.3122676 23.7461319,14.7961218 L23.7779031,14.8576238 C24.4917336,14.820023 24.7048044,14.820023 25.32303,14.8302248 Z M30.5012891,14.857478 C30.5455939,14.641201 30.8087989,13.3592791 30.8111306,13.3592791 C30.8111306,13.3592791 31.0352775,12.4186783 31.0489772,12.3845753 C31.0489772,12.3845753 31.1195149,12.2866387 31.1900526,12.247872 L31.2938188,12.247872 C32.2728949,12.247872 33.3784723,12.247872 34.2450375,11.6104088 C34.8346984,11.1731912 35.2378129,10.5275665 35.417655,9.74290678 C35.4642917,9.55053103 35.4986861,9.32172049 35.4986861,9.09290998 C35.4986861,8.79239576 35.4383501,8.49508779 35.264046,8.26277953 C34.8221647,7.64455388 33.9421916,7.63318622 32.9263894,7.62852255 C32.9231831,7.62852255 32.4256294,7.63318622 32.4256294,7.63318622 C31.1253444,7.64921753 30.6038895,7.64455388 30.3896529,7.61832083 C30.3715813,7.71305128 30.3374782,7.88152581 30.3374782,7.88152581 C30.3374782,7.88152581 29.8716958,10.0402148 29.8716958,10.0437125 C29.8716958,10.0437125 28.7570826,14.6333311 28.7046163,14.849608 C29.8399247,14.8359086 30.3054157,14.8359086 30.5012891,14.857478 Z M31.3643567,11.0227883 C31.3643567,11.0227883 31.8595785,8.86847162 31.8572467,8.87663301 L31.8732778,8.76616271 L31.8802734,8.68192545 L32.0781872,8.70232892 C32.0781872,8.70232892 33.0995274,8.79006392 33.1234288,8.79239576 C33.5265433,8.9483367 33.6926859,9.35028538 33.5766776,9.87494644 C33.470871,10.3544284 33.1598636,10.7575431 32.7602467,10.9522506 C32.4311676,11.1172273 32.0280529,11.1309268 31.6126963,11.1309268 L31.3439533,11.1309268 L31.3643567,11.0227883 Z M34.4477317,12.8798846 C34.3168579,13.4377742 34.1664549,14.4567827 35.0988943,14.8199648 C35.3962022,14.9464663 35.6626134,14.984067 35.933397,14.9703676 C36.2193373,14.9549192 36.4842911,14.8115119 36.7297159,14.6051452 C36.7075637,14.6899654 36.6854113,14.7747856 36.6632589,14.8598973 L36.7055231,14.9144037 C37.3762149,14.8861303 37.5843306,14.8861303 38.3109861,14.8916684 L38.3768602,14.8415341 C38.4829584,14.2177703 38.5829355,13.6120783 38.8586741,12.4187658 C38.9930454,11.8471766 39.1271256,11.2811257 39.2649949,10.7118683 L39.2434256,10.6492005 C38.4931601,10.7882357 38.2926231,10.8179665 37.5709224,10.9202754 L37.5161246,10.9648716 C37.5088376,11.0228758 37.5012592,11.0785481 37.4942636,11.1342205 C37.3820445,10.952921 37.2193997,10.798146 36.9684367,10.7016667 C36.6475189,10.5754565 35.8937559,10.7381014 35.2457994,11.3280536 C34.7905102,11.7492399 34.5719016,12.3263671 34.4477317,12.8798846 Z M36.0234637,12.9139876 C36.1840684,12.22639 36.3685742,11.6445992 36.8465989,11.6445992 C37.1488618,11.6445992 37.308009,11.923544 37.2756549,12.3992367 C37.2500049,12.5178684 37.2223144,12.6429127 37.1893772,12.7842797 C37.141575,12.988606 37.0896917,13.1911835 37.039266,13.3940525 C36.9879656,13.5327962 36.9282127,13.66367 36.8626301,13.750822 C36.7396262,13.9251261 36.446982,14.0332645 36.2785074,14.0332645 C36.2307049,14.0332645 35.9357287,14.0332645 35.9255271,13.5983788 C35.9231951,13.3818104 35.9677914,13.1588294 36.0234637,12.9139876 Z M44.2520443,10.6436333 L44.1940402,10.5774677 C43.4516447,10.7278705 43.317273,10.7517717 42.6352138,10.8438789 L42.5850793,10.8940132 C42.5827477,10.9021746 42.5807072,10.9147082 42.5772096,10.9260758 L42.5748776,10.9147082 C42.0671224,12.0861598 42.0819877,11.8334481 41.6686714,12.7556857 C41.6663394,12.7137128 41.6663394,12.6874797 41.6640079,12.6428835 L41.5605328,10.6436333 L41.4955331,10.5774677 C40.717869,10.7278705 40.6995058,10.7517717 39.981303,10.8438789 L39.9253393,10.8940132 C39.9174692,10.9179144 39.9174692,10.9441475 39.9128057,10.9727123 L39.9174692,10.9829141 C40.0072446,11.4417011 39.9856751,11.3393922 40.0757421,12.0634245 C40.1177149,12.4187366 40.1736787,12.7760891 40.2156516,13.1270291 C40.286481,13.7143581 40.3261221,14.0035046 40.412691,14.8998007 C39.9276709,15.7002003 39.8128284,16.0030463 39.3458801,16.7055093 L39.3490864,16.7125047 L39.0202987,17.2325021 C38.9826981,17.2873001 38.9485952,17.3249008 38.9007926,17.3409322 C38.8483266,17.3668737 38.7801206,17.3715373 38.68539,17.3715373 L38.5032161,17.3715373 L38.2324327,18.2722056 L39.1613743,18.2882369 C39.7067302,18.2859051 40.0495089,18.0308615 40.2340147,17.6880829 L40.8181374,16.6871461 L40.8088101,16.6871461 L40.8703121,16.6166083 C41.2632249,15.7707381 44.2520443,10.6436333 44.2520443,10.6436333 Z M34.4477025,22.4725547 L34.0536236,22.4725547 L35.5121816,17.648296 L35.9960357,17.648296 L36.1496447,17.1513254 L36.1645101,17.7039684 C36.1464384,18.0455811 36.4151816,18.3484271 37.1211422,18.2982929 L37.9375731,18.2982929 L38.2185583,17.3693513 L37.9113401,17.3693513 C37.7347042,17.3693513 37.6527988,17.324755 37.6630007,17.2291502 L37.6481351,16.6668883 L36.1362367,16.6668883 L36.1362367,16.6698031 C35.6474276,16.6800049 34.1877037,16.7167312 33.8921447,16.7954303 C33.5345008,16.8875375 33.1576191,17.1586124 33.1576191,17.1586124 L33.3056901,16.6610588 L31.891437,16.6610588 L31.5967524,17.648296 L30.1186656,22.5462988 L29.8318507,22.5462988 L29.5505741,23.4685365 L32.3674213,23.4685365 L32.2729822,23.7760461 L33.6610022,23.7760461 L33.7531095,23.4685365 L34.1425247,23.4685365 L34.4477025,22.4725547 Z M33.2919907,18.6285379 C33.0655121,18.6912057 32.6440342,18.8812496 32.6440342,18.8812496 L33.0188754,17.648296 L34.1425247,17.648296 L33.8714497,18.5466324 C33.8714497,18.5466324 33.5242989,18.5670359 33.2919907,18.6285379 Z M33.3135602,20.3899418 C33.3135602,20.3899418 32.9605798,20.4342465 32.7282714,20.4867126 C32.4994609,20.5560846 32.0704048,20.7746933 32.0704048,20.7746933 L32.4574881,19.4916054 L33.5869669,19.4916054 L33.3135602,20.3899418 Z M32.6839669,22.4839224 L31.55682,22.4839224 L31.8835672,21.4010803 L33.0072163,21.4010803 L32.6839669,22.4839224 Z M35.3983882,19.4916054 L37.0230889,19.4916054 L36.7896146,20.2477003 L35.1433449,20.2477003 L34.896171,21.0743331 L36.3366572,21.0743331 L35.2459453,22.6101326 C35.1695779,22.7229349 35.1010804,22.7628673 35.0250047,22.7946384 C34.9486372,22.833405 34.8483688,22.8788756 34.7323603,22.8788756 L34.3327434,22.8788756 L34.0581707,23.7842076 L35.1034121,23.7842076 C35.6467279,23.7842076 35.9676456,23.5370338 36.2046176,23.2126183 L36.9525512,22.1889463 L37.1131558,23.2283584 C37.1472587,23.4230657 37.2871684,23.5370338 37.3818988,23.5813386 C37.4865396,23.6338046 37.5946781,23.7238716 37.7474128,23.7372795 C37.9112235,23.7442749 38.0295637,23.7498131 38.1082629,23.7498131 L38.6218479,23.7498131 L38.930232,22.7366342 L38.7276546,22.7366342 C38.6113545,22.7366342 38.411109,22.7171051 38.3770061,22.6806703 C38.3429031,22.6363656 38.3429031,22.5681596 38.3245399,22.4643934 L38.1616035,21.4226496 L37.4944093,21.4226496 L37.7870539,21.0743331 L39.4301173,21.0743331 L39.6828291,20.2477003 L38.1616035,20.2477003 L38.3985754,19.4916054 L39.9151374,19.4916054 L40.1964141,18.5591661 L35.6750014,18.5591661 L35.3983882,19.4916054 Z M21.6761107,22.6944574 L22.0553241,21.432939 L23.6138591,21.432939 L23.8986334,20.4946701 L22.3386411,20.4946701 L22.576779,19.7181716 L24.1012108,19.7181716 L24.3836535,18.8096334 L20.5693672,18.8096334 L20.2927543,19.7181716 L21.1593195,19.7181716 L20.9281772,20.4946701 L20.0592801,20.4946701 L19.7712996,21.4489703 L20.6375732,21.4489703 L20.1321497,23.1179754 C20.0639437,23.3389161 20.1642124,23.4231533 20.2277546,23.5257536 C20.2927543,23.6257307 20.3586285,23.6918963 20.5066995,23.7294969 C20.6594342,23.7636 20.7640749,23.7840034 20.9063164,23.7840034 L22.6633481,23.7840034 L22.9763959,22.7445915 L22.1975655,22.8515642 C22.0471627,22.8515642 21.6306401,22.8334926 21.6761107,22.6944574 Z M21.8548744,16.655375 L21.4599212,17.3692056 C21.3753924,17.5251464 21.2993166,17.6219173 21.2308192,17.6665134 C21.1704832,17.7041142 21.0509771,17.719854 20.8778389,17.719854 L20.6717636,17.719854 L20.3963166,18.6330558 L21.0807079,18.6330558 C21.4097869,18.6330558 21.6624986,18.5123838 21.7831708,18.4520477 C21.9128786,18.3826759 21.9469815,18.4223169 22.0472501,18.3255461 L22.2783926,18.1253004 L24.415512,18.1253004 L24.6991206,17.174498 L23.1347559,17.174498 L23.4078712,16.655375 L21.8548744,16.655375 Z M25.009953,22.7127913 C24.9735182,22.6603251 24.9997513,22.5679266 25.0554236,22.3755508 L25.6395463,20.4421748 L27.7174957,20.4421748 C28.0203418,20.4378026 28.2389505,20.4343048 28.3811919,20.4241031 C28.5339266,20.4080717 28.7000694,20.3535653 28.8810774,20.2556286 C29.0679152,20.1530282 29.1635199,20.0448896 29.2442595,19.9207198 C29.3343262,19.7968416 29.4788996,19.5257666 29.6030694,19.1077868 L30.3373035,16.6611171 L28.1809464,16.6736507 C28.1809464,16.6736507 27.5169587,16.7715874 27.2246059,16.8797258 C26.9296297,17.0003979 26.5081519,17.337347 26.5081519,17.337347 L26.7028596,16.6666552 L25.3708031,16.6666552 L23.5059246,22.8515351 C23.439759,23.0917131 23.3954542,23.2660172 23.3851907,23.3706579 C23.3817547,23.4834602 23.527494,23.5950964 23.6219331,23.6793336 C23.7335692,23.7635709 23.8985458,23.7498714 24.0568187,23.7635709 C24.2232529,23.7761046 24.4599334,23.7839743 24.7866804,23.7839743 L25.8103526,23.7839743 L26.1245662,22.722993 L25.2081583,22.8095621 C25.1102216,22.8095621 25.0393924,22.7570959 25.009953,22.7127913 Z M26.0164279,19.1363514 L28.1990181,19.1363514 L28.0602744,19.5712373 C28.0407454,19.5814389 27.9941087,19.5496678 27.7720022,19.5759009 L25.8820564,19.5759009 L26.0164279,19.1363514 Z M26.4536454,17.6777937 L28.6545986,17.6777937 L28.4963259,18.2015803 C28.4963259,18.2015803 27.4589544,18.1913786 27.2928118,18.2219838 C26.5617838,18.3484854 26.1347681,18.7390665 26.1347681,18.7390665 L26.4536454,17.6777937 Z M28.1091261,21.0275507 C28.0910544,21.0925504 28.0624896,21.1321914 28.0225571,21.1619222 C27.9782522,21.1904871 27.9065486,21.2006888 27.7995761,21.2006888 L27.4885686,21.2006888 L27.5069317,20.6710727 L26.2133507,20.6710727 L26.1608846,23.2602752 C26.1588442,23.4471128 26.1769159,23.5552513 26.3136193,23.6418204 C26.4503226,23.7499588 26.8715089,23.7636583 27.4384342,23.7636583 L28.2490357,23.7636583 L28.5416801,22.7944928 L27.8360107,22.8332593 L27.6013708,22.8469588 C27.5693081,22.8332593 27.5387029,22.8207257 27.5046,22.7866228 C27.4748691,22.7571834 27.4247349,22.7752553 27.4328962,22.5884175 L27.4384342,21.9247213 L28.1784981,21.8941161 C28.5781149,21.8941161 28.7489212,21.7641165 28.8946603,21.6402383 C29.0336955,21.5216066 29.0791661,21.3851948 29.1316324,21.2006888 L29.2558022,20.6130684 L28.2388339,20.6130684 L28.1091261,21.0275507 Z" id="Shape" fill="#000000"></path>
        </g>
    </g>
</svg>