<?xml version="1.0" encoding="UTF-8"?>
<svg width="97px" height="30px" viewBox="0 0 97 30" version="1.1" xmlns="http://www.w3.org/2000/svg" xmlns:xlink="http://www.w3.org/1999/xlink">
    <title>VISA_Dark</title>
    <g id="Page-1" stroke="none" stroke-width="1" fill="none" fill-rule="evenodd">
        <path d="M63.3235565,0 C66.377493,0 68.8251035,0.631578947 70.3865451,1.22037351 L70.3865451,1.22037351 L69.319898,7.51986418 L68.6081239,7.18370119 C67.156186,6.59694397 65.2865117,6.03056027 62.7070912,6.0713073 C59.6207091,6.0713073 58.1890496,7.36298812 58.1890496,8.57113752 C58.1728269,9.93208829 59.859995,10.8285229 62.617866,12.1772496 C67.1744366,14.2451613 69.2773132,16.765365 69.2428398,20.0679117 C69.1860601,26.104584 63.8001003,30 55.5122925,30 C51.9777564,29.9633277 48.5730025,29.2645161 46.7276623,28.4516129 L46.7276623,28.4516129 L47.8368943,21.9463497 L48.8528453,22.4108659 C51.442405,23.4947368 53.1194339,23.9327674 56.2767906,23.9327674 C58.5418949,23.9327674 60.9671991,23.0404075 60.9915332,21.0947368 C61.0057281,19.8213922 59.9755822,18.9147708 56.9033951,17.4886248 C53.9102939,16.0971138 49.9478823,13.7663837 49.9985784,9.59185059 C50.0411632,3.94227504 55.532571,0 63.3235565,0 Z M90.6203955,0.531748727 L97,29.5803056 L89.6855584,29.5803056 C89.6855584,29.5803056 88.9595894,26.2410866 88.7243592,25.2264856 L88.7243592,25.2264856 L88.1692589,25.2261262 C88.107382,25.2260685 88.0419159,25.2260044 87.9730974,25.2259343 L87.2696021,25.2251535 C87.1827982,25.2250513 87.0933518,25.2249443 87.0014994,25.2248331 L86.4234062,25.2241167 C86.1218169,25.2237359 85.8028332,25.2233236 85.4728441,25.2228908 L84.8000853,25.2220014 C83.7746157,25.2206364 82.6884325,25.2191545 81.7140402,25.2178562 L81.0829,25.2170212 C80.7775037,25.2166206 80.4887881,25.2162478 80.223142,25.215914 L79.5018019,25.2150404 C79.4307627,25.2149588 79.3629967,25.2148828 79.2987404,25.2148127 L78.6277125,25.2142615 C78.3215077,25.9986418 76.9709621,29.5803056 76.9709621,29.5803056 L76.9709621,29.5803056 L68.6912656,29.5803056 L80.3980223,2.94397284 C81.2294393,1.04923599 82.6367646,0.531748727 84.5287452,0.531748727 L84.5287452,0.531748727 L90.6203955,0.531748727 Z M46.7276623,0.499151104 L41.7939123,29.5640068 L33.9096459,29.5640068 L38.8393402,0.499151104 L46.7276623,0.499151104 Z M35.6515658,0.525636672 L23.2350629,29.5354839 L14.8925032,29.5497453 L7.83154242,5.31137521 C12.9072417,8.57521222 17.23061,13.7541596 18.7535226,17.3602716 L18.7535226,17.3602716 L19.5768282,20.3531409 L27.2988669,0.531748727 L35.6515658,0.525636672 Z M85.0884308,8.36740238 C84.6808337,9.4614601 83.9954217,11.2217317 84.0380064,11.142275 C84.0380064,11.142275 81.5457833,17.5966044 80.8968725,19.2651952 L80.8968725,19.2651952 L87.4468161,19.2651952 C87.130472,17.8125637 85.6197266,10.8733447 85.6197266,10.8733447 L85.6197266,10.8733447 Z M12.3252498,0.250594228 C13.9738889,0.313752122 15.3021282,0.841426146 15.7604215,2.61188455 L15.7604215,2.61188455 L18.418928,15.4512733 C15.8070619,8.73412564 9.512627,3.14770798 0,0.829202037 L0,0.829202037 L0.101392315,0.250594228 Z" id="VISA_Dark" fill="#A1A1A1" fill-rule="nonzero"></path>
    </g>
</svg>