<?xml version="1.0" encoding="UTF-8"?>
<svg width="25px" height="18px" viewBox="0 0 25 18" version="1.1" xmlns="http://www.w3.org/2000/svg" xmlns:xlink="http://www.w3.org/1999/xlink">
    <title>CardIcon</title>
    <g id="Page-1" stroke="none" stroke-width="1" fill="none" fill-rule="evenodd">
        <path d="M25,6 L25,15 C25,16.6568542 23.6568542,18 22,18 L3,18 C1.34314575,18 2.02906125e-16,16.6568542 0,15 L0,6 L25,6 Z M5.5,11.5 L5,11.5 C4.44771525,11.5 4,11.9477153 4,12.5 L4,12.5 L4,13 C4,13.5522847 4.44771525,14 5,14 L5,14 L5.5,14 C6.05228475,14 6.5,13.5522847 6.5,13 L6.5,13 L6.5,12.5 C6.5,11.9477153 6.05228475,11.5 5.5,11.5 L5.5,11.5 Z M22,0 C23.6568542,-3.04359188e-16 25,1.34314575 25,3 L25,4 L0,4 L0,3 C-2.02906125e-16,1.34314575 1.34314575,-5.83819232e-16 3,0 L22,0 Z" id="CardIcon" fill="#BDC9D3" fill-rule="nonzero"></path>
    </g>
</svg>