<?xml version="1.0" encoding="UTF-8"?>
<svg width="23px" height="30px" viewBox="0 0 23 30" version="1.1" xmlns="http://www.w3.org/2000/svg" xmlns:xlink="http://www.w3.org/1999/xlink">
    <title>Delete</title>
    <g id="Page-1" stroke="none" stroke-width="1" fill="none" fill-rule="evenodd">
        <path d="M19.8760028,9.82910156 L3.12399716,9.82910156 C2.66497943,9.82910156 2.30362979,10.2264404 2.34062189,10.6908417 L3.74113357,28.2634735 C3.8191779,29.2444611 4.62556048,30 5.59434732,30 L17.4054271,30 C18.374214,30 19.1805966,29.2444611 19.2586408,28.2632446 L20.6591526,10.6908417 C20.6963702,10.2264404 20.3350206,9.82910156 19.8760028,9.82910156 L19.8760028,9.82910156 Z M7.18027063,28.1256867 C7.16154906,28.1268311 7.14282744,28.1275177 7.12433136,28.1275177 C6.65651673,28.1275177 6.26381401,27.7578735 6.23471659,27.2776794 L5.35705662,12.8514862 C5.32683134,12.3522949 5.70103797,11.9226837 6.19276217,11.8920135 C6.68290741,11.8618011 7.10809093,12.2406006 7.13831621,12.7400208 L8.01575063,27.166214 C8.04620146,27.6654053 7.67199482,28.0947876 7.18027063,28.1256867 L7.18027063,28.1256867 Z M12.4022462,27.2220612 C12.4022462,27.7219391 12.0027767,28.1272888 11.5099247,28.1272888 C11.0170727,28.1272888 10.6176032,27.7219391 10.6176032,27.2220612 L10.6176032,12.795639 C10.6176032,12.2955322 11.0170727,11.8901825 11.5099247,11.8901825 C12.0025511,11.8901825 12.4022462,12.2955322 12.4022462,12.795639 L12.4022462,27.2220612 Z M16.8045311,11.8917847 C17.2964808,11.9210815 17.6718153,12.3497772 17.6429434,12.8489685 L16.8049822,27.2751618 C16.7772382,27.7562713 16.3838588,28.1272888 15.9151419,28.1272888 L15.8619093,28.1259155 L15.8619093,28.1259155 C15.3699596,28.0963898 14.9946252,27.667923 15.0237227,27.1687317 L15.8614582,12.7423096 C15.8903301,12.2431183 16.311228,11.8622589 16.8045311,11.8917847 Z M21.2992962,4.46548465 C21.787637,4.46548465 22.2211663,4.78248598 22.375676,5.25238037 L22.375676,5.25238037 L22.9616849,7.03491211 C23.0746913,7.37846373 22.9276251,7.7291107 22.6531167,7.90397643 C22.5414637,7.97538756 22.4088335,8.01818848 22.2633464,8.01818848 L22.2633464,8.01818848 L0.736653648,8.01818848 C0.591166459,8.01818848 0.458761811,7.97538756 0.34688328,7.90420535 C0.0723748807,7.72933957 -0.0746912537,7.37869266 0.0383150713,7.03491211 L0.0383150713,7.03491211 L0.624324022,5.25238037 C0.778608127,4.78248598 1.21236301,4.46548465 1.70047822,4.46548465 L1.70047822,4.46548465 Z M14.0878677,0 C15.0072566,0 15.7552187,0.759429961 15.7549932,1.69281006 L15.7549932,1.69281006 L15.7549932,2.65457156 L13.9705757,2.65457156 L13.9705757,1.81091309 L9.02942429,1.81091309 L9.02942429,2.65457156 L7.24478126,2.65457156 L7.24478126,1.69281006 C7.24478126,0.759429961 7.99274338,0 8.91213228,0 L8.91213228,0 Z" id="Delete" fill="#DE1717" fill-rule="nonzero"></path>
    </g>
</svg>