<?xml version="1.0" encoding="UTF-8"?>
<svg width="23px" height="25px" viewBox="0 0 23 25" version="1.1" xmlns="http://www.w3.org/2000/svg" xmlns:xlink="http://www.w3.org/1999/xlink">
    <title>NoteIcon</title>
    <g id="Page-1" stroke="none" stroke-width="1" fill="none" fill-rule="evenodd">
        <path d="M18.9411765,0 L4.05882353,0 C2.09564706,0 0.5,1.54125 0.5,3.4375 L0.5,21.5625 C0.5,23.45875 2.09564706,25 4.05882353,25 L18.9411765,25 C20.9043529,25 22.5,23.45875 22.5,21.5625 L22.5,3.4375 C22.5,1.54125 20.9043529,0 18.9411765,0 Z M16.3529412,21.25 L6.64705882,21.25 C6.11129412,21.25 5.67647059,20.83 5.67647059,20.3125 C5.67647059,19.795 6.11129412,19.375 6.64705882,19.375 L16.3529412,19.375 C16.8887059,19.375 17.3235294,19.795 17.3235294,20.3125 C17.3235294,20.83 16.8887059,21.25 16.3529412,21.25 Z M16.3529412,16.25 L6.64705882,16.25 C6.11129412,16.25 5.67647059,15.83 5.67647059,15.3125 C5.67647059,14.795 6.11129412,14.375 6.64705882,14.375 L16.3529412,14.375 C16.8887059,14.375 17.3235294,14.795 17.3235294,15.3125 C17.3235294,15.83 16.8887059,16.25 16.3529412,16.25 Z M16.3529412,11.875 L6.64705882,11.875 C6.11129412,11.875 5.67647059,11.455 5.67647059,10.9375 C5.67647059,10.42 6.11129412,10 6.64705882,10 L16.3529412,10 C16.8887059,10 17.3235294,10.42 17.3235294,10.9375 C17.3235294,11.455 16.8887059,11.875 16.3529412,11.875 Z M16.3529412,6.875 L6.64705882,6.875 C6.11129412,6.875 5.67647059,6.455 5.67647059,5.9375 C5.67647059,5.42 6.11129412,5 6.64705882,5 L16.3529412,5 C16.8887059,5 17.3235294,5.42 17.3235294,5.9375 C17.3235294,6.455 16.8887059,6.875 16.3529412,6.875 Z" id="NoteIcon" fill="#BDC9D3" fill-rule="nonzero"></path>
    </g>
</svg>