<?xml version="1.0" encoding="UTF-8"?>
<svg width="19px" height="25px" viewBox="0 0 19 25" version="1.1" xmlns="http://www.w3.org/2000/svg" xmlns:xlink="http://www.w3.org/1999/xlink">
    <title>PassIcon</title>
    <g id="Page-1" stroke="none" stroke-width="1" fill="none" fill-rule="evenodd">
        <path d="M16.625,9.375 L15.8333333,9.375 L15.8333333,6.25 C15.8333333,2.803125 12.9928333,0 9.5,0 C6.00716667,0 3.16666667,2.803125 3.16666667,6.25 L3.16666667,9.375 L2.375,9.375 C1.06611111,9.375 0,10.4260417 0,11.71875 L0,22.65625 C0,23.9489583 1.06611111,25 2.375,25 L16.625,25 C17.9338889,25 19,23.9489583 19,22.65625 L19,11.71875 C19,10.4260417 17.9338889,9.375 16.625,9.375 Z M5.27777778,6.25 C5.27777778,3.95208333 7.17144444,2.08333333 9.5,2.08333333 C11.8285556,2.08333333 13.7222222,3.95208333 13.7222222,6.25 L13.7222222,9.375 L5.27777778,9.375 L5.27777778,6.25 Z M10.5555556,17.41875 L10.5555556,19.7916667 C10.5555556,20.3666667 10.0837222,20.8333333 9.5,20.8333333 C8.91627778,20.8333333 8.44444444,20.3666667 8.44444444,19.7916667 L8.44444444,17.41875 C7.81638889,17.0572917 7.38888889,16.3927083 7.38888889,15.625 C7.38888889,14.4760417 8.33572222,13.5416667 9.5,13.5416667 C10.6642778,13.5416667 11.6111111,14.4760417 11.6111111,15.625 C11.6111111,16.3927083 11.1836111,17.0572917 10.5555556,17.41875 Z" id="PassIcon" fill="#BDC9D3" fill-rule="nonzero"></path>
    </g>
</svg>