<?xml version="1.0" encoding="UTF-8"?>
<svg width="25px" height="25px" viewBox="0 0 25 25" version="1.1" xmlns="http://www.w3.org/2000/svg" xmlns:xlink="http://www.w3.org/1999/xlink">
    <title>SettingsIcon</title>
    <g id="Page-1" stroke="none" stroke-width="1" fill="none" fill-rule="evenodd">
        <path d="M24.0835788,15.239536 L21.8182852,13.4426715 C21.8885145,12.8155267 21.8885145,12.1823272 21.8182852,11.5551825 L24.0856486,9.75729255 C24.5105386,9.41017543 24.6240897,8.80148757 24.3536657,8.32082631 L21.9969633,4.18857499 C21.7255286,3.7048864 21.147424,3.49365716 20.6343021,3.6906775 L17.9643835,4.78027076 C17.4626697,4.41103463 16.9252395,4.09448374 16.3603722,3.83550087 L15.9506448,0.958418026 C15.8767572,0.406077493 15.4096045,-0.00446699002 14.8600923,3.66958641e-05 L10.1364346,3.66958641e-05 C9.5914953,-0.00324629401 9.12809713,0.402708372 9.05204342,0.950068465 L8.64130522,3.83545205 C8.07817079,4.09692513 7.54160701,4.41372016 7.03936369,4.78129615 L4.36222479,3.68960329 C3.85439777,3.4865283 3.27682276,3.69521849 3.00981645,4.17812583 L0.651044185,8.31770133 C0.373351855,8.79914383 0.487673104,9.41452111 0.919061326,9.76041753 L3.18435492,11.5572821 C3.11345167,12.184378 3.11345167,12.8176751 3.18435492,13.4447711 L0.91699151,15.2416356 C0.491379519,15.5882644 0.377298947,16.1972941 0.647963528,16.6781018 L3.00365514,20.8114274 C3.27475294,21.2954578 3.85319439,21.5068335 4.36631629,21.3093249 L7.03623489,20.2197316 C7.53838195,20.589163 8.0761491,20.9060557 8.64125709,21.1655757 L9.05199528,24.0405589 C9.12429445,24.5914346 9.58855905,25.0021744 10.1363865,24.9999645 L14.8600442,24.9999645 C15.4059943,25.0043717 15.8708847,24.5982705 15.947516,24.0499339 L16.3582542,21.1645503 C16.9213405,20.9029796 17.4578562,20.5861845 17.9601958,20.2187062 L20.6403672,21.3114245 C21.1481942,21.5140112 21.7254804,21.3054675 21.9927755,20.8229019 L24.35872,16.6666761 C24.6236083,16.1866985 24.5071691,15.5828934 24.0835788,15.239536 Z M12.4982394,17.7082716 C9.66259109,17.7082716 7.36379535,15.3764493 7.36379535,12.4999524 C7.36379535,9.62345544 9.66254295,7.29163308 12.4982394,7.29163308 C15.3339359,7.29163308 17.6326834,9.62345544 17.6326834,12.4999524 C17.6292658,15.3750333 15.3324918,17.7048537 12.4982394,17.7082716 Z" id="SettingsIcon" fill="#BDC9D3" fill-rule="nonzero"></path>
    </g>
</svg>